# xmcd
#
# Track frame offsets: 
#        150
#        14759
#        27640
#        44839
#        62212
#        78311
#        96245
#        108604
#        127856
#        144370
#        160773
#        180992
#        196791
#        212388
#        229734
#        242710
#        256143
#        273027
#        286746
#        302841
#
# Disc length: 4269 seconds
#
# Revision: 0
# Processed by: cddbd v1.5.2PL0 Copyright (c) Steve Scherf et al.
# Submitted via: ExactAudioCopy v1.0b1
#
DISCID=1110ab14
DTITLE=Various Artist - CDX - Vol. 521
DYEAR=2011
DGENRE=Country
TTITLE0=Dierks Bentley - Am I The Only One
TTITLE1=Jake Owen - Barefoot Blue Jean Night
TTITLE2=Luke Bryan - Country Girl (Shake It For Me)
TTITLE3=Eric Church - Homeboy
TTITLE4=Blake Shelton - Honey Bee
TTITLE5=Randy Houser - In God's Time
TTITLE6=Bradley Gaskin - Mr. Bartender
TTITLE7=Brad Paisley - Old Alabama (Feat. Alabama)
TTITLE8=Alison Krauss - Paper Airplane
TTITLE9=Stealing Angels - Paper Heart
TTITLE10=Vince Gill - Threaten Me With Heaven
TTITLE11=Sierra Hull - Easy Come, Easy Go
TTITLE12=Ash Bowers - I Still Believe In That
TTITLE13=Jim Quick - Down South
TTITLE14=Andrew Heller - Houston, Houston, Houston
TTITLE15=Margaret Durante - Maybe Tonight
TTITLE16=Lucy Angel - Serious
TTITLE17=Jimmy Eugene - Stuck On You
TTITLE18=Corey Smith - Twenty-One
TTITLE19=David St. Romain - Twenty Years Late
EXTD=
EXTT0=
EXTT1=
EXTT2=
EXTT3=
EXTT4=
EXTT5=
EXTT6=
EXTT7=
EXTT8=
EXTT9=
EXTT10=
EXTT11=
EXTT12=
EXTT13=
EXTT14=
EXTT15=
EXTT16=
EXTT17=
EXTT18=
EXTT19=
PLAYORDER=
